<mxfile host="app.diagrams.net" modified="2023-11-28T02:52:37.893Z" agent="Mozilla/5.0 (Windows NT 10.0; Win64; x64) AppleWebKit/537.36 (KHTML, like Gecko) Chrome/119.0.0.0 Safari/537.36" etag="Y-_7Mhm9qq5OWm3mOwUn" version="22.1.4" type="github">
  <diagram name="Page-1" id="f37znJ-kPuiP-aYVYt2D">
    <mxGraphModel dx="794" dy="424" grid="1" gridSize="10" guides="1" tooltips="1" connect="1" arrows="1" fold="1" page="1" pageScale="1" pageWidth="827" pageHeight="1169" math="0" shadow="0">
      <root>
        <mxCell id="0" />
        <mxCell id="1" parent="0" />
        <mxCell id="mAKFKeToW0secv3d7RsR-1" value="&amp;lt;&amp;lt;subsystem&amp;gt;&amp;gt;&lt;br&gt;Analytics Microservice" style="verticalAlign=top;align=left;spacingTop=8;spacingLeft=2;spacingRight=12;shape=cube;size=10;direction=south;fontStyle=4;html=1;whiteSpace=wrap;" vertex="1" parent="1">
          <mxGeometry x="70" y="60" width="490" height="320" as="geometry" />
        </mxCell>
        <mxCell id="mAKFKeToW0secv3d7RsR-6" value="app.py" style="shape=folder;fontStyle=1;spacingTop=10;tabWidth=40;tabHeight=14;tabPosition=left;html=1;whiteSpace=wrap;align=left;verticalAlign=top;" vertex="1" parent="1">
          <mxGeometry x="140" y="140" width="140" height="220" as="geometry" />
        </mxCell>
        <mxCell id="mAKFKeToW0secv3d7RsR-7" value="API Endpoints" style="html=1;whiteSpace=wrap;" vertex="1" parent="1">
          <mxGeometry x="160" y="183" width="110" height="50" as="geometry" />
        </mxCell>
        <mxCell id="mAKFKeToW0secv3d7RsR-8" value="dockerfile" style="shape=folder;fontStyle=1;spacingTop=10;tabWidth=40;tabHeight=14;tabPosition=left;html=1;whiteSpace=wrap;verticalAlign=top;align=left;" vertex="1" parent="1">
          <mxGeometry x="362" y="297" width="70" height="50" as="geometry" />
        </mxCell>
        <mxCell id="mAKFKeToW0secv3d7RsR-9" value="db_setup.py" style="shape=folder;fontStyle=1;spacingTop=10;tabWidth=40;tabHeight=14;tabPosition=left;html=1;whiteSpace=wrap;align=left;verticalAlign=top;" vertex="1" parent="1">
          <mxGeometry x="362" y="235" width="90" height="50" as="geometry" />
        </mxCell>
        <mxCell id="mAKFKeToW0secv3d7RsR-10" value="utilities.py" style="shape=folder;fontStyle=1;spacingTop=10;tabWidth=40;tabHeight=14;tabPosition=left;html=1;whiteSpace=wrap;align=left;verticalAlign=top;" vertex="1" parent="1">
          <mxGeometry x="363" y="129" width="160" height="100" as="geometry" />
        </mxCell>
        <mxCell id="mAKFKeToW0secv3d7RsR-11" value="Helper Methods" style="html=1;whiteSpace=wrap;" vertex="1" parent="1">
          <mxGeometry x="392" y="169" width="110" height="50" as="geometry" />
        </mxCell>
        <mxCell id="mAKFKeToW0secv3d7RsR-13" value="Define Database" style="html=1;whiteSpace=wrap;" vertex="1" parent="1">
          <mxGeometry x="160" y="242" width="110" height="50" as="geometry" />
        </mxCell>
        <mxCell id="mAKFKeToW0secv3d7RsR-14" value="Setup Application" style="html=1;whiteSpace=wrap;" vertex="1" parent="1">
          <mxGeometry x="160" y="301" width="110" height="50" as="geometry" />
        </mxCell>
        <mxCell id="mAKFKeToW0secv3d7RsR-15" value="" style="endArrow=classic;html=1;rounded=0;entryX=1;entryY=0.5;entryDx=0;entryDy=0;dashed=1;exitX=0;exitY=0;exitDx=0;exitDy=32;exitPerimeter=0;" edge="1" parent="1" source="mAKFKeToW0secv3d7RsR-9" target="mAKFKeToW0secv3d7RsR-13">
          <mxGeometry width="50" height="50" relative="1" as="geometry">
            <mxPoint x="380" y="250" as="sourcePoint" />
            <mxPoint x="430" y="200" as="targetPoint" />
          </mxGeometry>
        </mxCell>
        <mxCell id="mAKFKeToW0secv3d7RsR-20" value="&amp;lt;&amp;lt;uses&amp;gt;&amp;gt;" style="edgeLabel;html=1;align=center;verticalAlign=middle;resizable=0;points=[];" vertex="1" connectable="0" parent="mAKFKeToW0secv3d7RsR-15">
          <mxGeometry x="0.1304" y="-1" relative="1" as="geometry">
            <mxPoint as="offset" />
          </mxGeometry>
        </mxCell>
        <mxCell id="mAKFKeToW0secv3d7RsR-16" value="" style="endArrow=classic;html=1;rounded=0;exitX=1;exitY=0.5;exitDx=0;exitDy=0;entryX=0;entryY=0;entryDx=0;entryDy=78.5;entryPerimeter=0;dashed=1;" edge="1" parent="1" source="mAKFKeToW0secv3d7RsR-7" target="mAKFKeToW0secv3d7RsR-10">
          <mxGeometry width="50" height="50" relative="1" as="geometry">
            <mxPoint x="380" y="250" as="sourcePoint" />
            <mxPoint x="430" y="200" as="targetPoint" />
          </mxGeometry>
        </mxCell>
        <mxCell id="mAKFKeToW0secv3d7RsR-19" value="&amp;lt;&amp;lt;uses&amp;gt;&amp;gt;" style="edgeLabel;html=1;align=center;verticalAlign=middle;resizable=0;points=[];" vertex="1" connectable="0" parent="mAKFKeToW0secv3d7RsR-16">
          <mxGeometry x="-0.1398" relative="1" as="geometry">
            <mxPoint as="offset" />
          </mxGeometry>
        </mxCell>
        <mxCell id="mAKFKeToW0secv3d7RsR-18" value="" style="endArrow=classic;html=1;rounded=0;entryX=1.012;entryY=0.862;entryDx=0;entryDy=0;dashed=1;exitX=0;exitY=0;exitDx=0;exitDy=32;exitPerimeter=0;entryPerimeter=0;" edge="1" parent="1" source="mAKFKeToW0secv3d7RsR-8" target="mAKFKeToW0secv3d7RsR-6">
          <mxGeometry width="50" height="50" relative="1" as="geometry">
            <mxPoint x="330" y="277" as="sourcePoint" />
            <mxPoint x="280" y="277" as="targetPoint" />
          </mxGeometry>
        </mxCell>
        <mxCell id="mAKFKeToW0secv3d7RsR-21" value="&amp;lt;&amp;lt;uses&amp;gt;&amp;gt;" style="edgeLabel;html=1;align=center;verticalAlign=middle;resizable=0;points=[];" vertex="1" connectable="0" parent="mAKFKeToW0secv3d7RsR-18">
          <mxGeometry x="0.0706" relative="1" as="geometry">
            <mxPoint as="offset" />
          </mxGeometry>
        </mxCell>
      </root>
    </mxGraphModel>
  </diagram>
</mxfile>
